<svg xmlns="http://www.w3.org/2000/svg" width="2495" height="1976" viewBox="0 0 2495 1976"><clipPath id="a"><path d="M0 0h2495v1975.53H0z"/></clipPath><g clip-path="url(#a)"><path d="M985.316 165.42c21.627-3.07 46.05 12.472 63.717 24.733 190.268 132.254 373.753 282.121 514.537 467.716 8.1 11.487 16.482 22.988 24.046 34.84 91.438 143.284 167.253 299.91 202.28 467.07 16.211 77.379-2.517 114.678-44.825 177.047-23.66-2.983-67.037-15.084-90.542-21.64-87.24-24.332-179.321-53.2-264.732-83.246-256.369-90.194-520.292-123.209-786.406-55.585-71.111 18.071-142.732 44.694-212.065 70.48 26.2-19.66 55.573-39.399 82.516-58.662a31370 31370 0 0 1 266.115-182.154l450.178-308.471c-85.4-92.162-173.03-182.515-256.422-276.269-19.311 2.605-59.104 13.286-79.724 18.108L694.914 476.47a29021 29021 0 0 0-311.309 74.036c-58.423 13.84-119.844 27.107-177.695 41.676 16.276-11.355 37.46-29.815 53.556-42.643a1677 1677 0 0 1 91.757-68.493 2523 2523 0 0 1 499.948-270.29c38.24-15.52 94.196-38.79 134.145-45.336"/><path fill="#268ccb" d="M846.102 1226.643c73.682-6.006 168.057 5.479 240.835 15.692 150.578 21.134 299.164 71.463 442.516 122.098 297.466 105.076 528.782 134.666 831.986 32.067-167.003 129.824-319.908 181.205-532.649 184.17-232.76-2.965-412.88-71.108-628.22-146.61-306.702-107.534-582.82-115.305-895.628-25.644 156.46-121.026 346.41-171.592 541.16-181.773"/><path fill="#268ccb" d="M622.318 1445.057c40.574-3.304 101.972 1.136 142.506 4.032 179.41 13.433 356.373 70.07 525.144 128.612 185.71 64.415 364.387 111.33 562.756 94.928 83.716-6.923 174.73-17.699 253.982-48.59-33.66 29.372-72.822 50.776-112.854 70.054-140.027 67.439-297.936 90.14-452.39 83.09-27.955-.021-76.507-6.048-104.73-9.706-140.561-18.225-281.247-64.916-413.918-112.384-246.351-88.144-495.737-130.482-756.006-87.346-74.293 12.314-136.695 21.37-210.273 44.703 168.472-106.387 368.697-155.169 565.783-167.393"/><path d="M1961.313 521.425c138.518-13.103 261.51 88.38 274.97 226.892 13.48 138.509-87.672 261.796-226.113 275.639-138.955 13.89-262.778-87.735-276.298-226.763-13.521-139.03 88.406-262.615 227.44-275.768"/></g></svg>