<svg xmlns="http://www.w3.org/2000/svg" width="1024" height="1024" viewBox="0 0 1024 1024"><path fill="#fff" d="M0 0h1024v1024H0z"/><path d="M454.243 296.632c4.642-.314 12.527 5.004 16.415 7.673 47.185 32.389 98.539 74.768 133.404 120.241 15.371 20.048 32.529 52.293 42.693 75.475 8.573 19.555 15.929 41.064 20.254 61.999 4.259 20.616-.855 29.882-12.264 46.822-33.313-7.501-66.156-18.647-98.344-29.521-69.104-23.345-136.572-31.374-207.841-12.67-18.943 4.971-34.717 11.257-53.27 17.635a935 935 0 0 1 23.477-16.649l188.334-128.911c-5.277-6.345-12.994-14.057-18.772-20.308-16.338-17.675-33.52-34.946-49.153-53.264-12.729 2.675-25.74 5.998-38.476 8.878-51.582 11.661-102.995 24.894-154.565 36.481 47.916-40.917 110.55-76.737 168.783-100.483 11.936-4.868 26.797-11.15 39.325-13.398"/><path fill="#268ccb" d="M416.72 579.25c42.643-2.229 95.673 8.177 136.031 21.552 66.681 22.1 122.765 46.533 195.002 39.355 27.575-2.739 43.833-7.475 69.983-15.28-42.32 34.975-89.863 48.471-144.411 48.478a358 358 0 0 1-88.678-14.115c-23.486-6.683-50.87-16.799-74.246-24.835-82.868-28.484-154.136-31.225-238.162-6.829 6.044-4.909 14.815-10.484 21.572-14.453 38.166-22.422 79.059-31.993 122.909-33.873"/><path fill="#268ccb" d="M349.171 637.707c18.093-1.821 41.11.127 59.175 2.096 60.818 6.63 116.378 32.224 174.71 48.151 51.866 14.162 115.814 14.747 167.306-2.697-6.539 6.042-17.202 12.251-25.335 16.242-38.215 18.754-75.222 24.848-117.24 24.374-54.36-1.917-94.114-14.812-144.519-32.66-64.143-22.713-125.493-34.221-193.357-24.578-19.813 2.815-42.605 6.624-62 12.277 6.044-4.399 19.262-11.052 26.093-14.172a324.2 324.2 0 0 1 115.167-29.033"/><path d="M712.517 391.702c36.872-3.393 69.54 23.683 73.048 60.544s-23.466 69.613-60.316 73.236c-37.013 3.639-69.941-23.48-73.465-60.504-3.523-37.024 23.699-69.868 60.733-73.276"/></svg>