<svg width="366" height="170" viewBox="0 0 366 170" xmlns="http://www.w3.org/2000/svg">
  <rect width="366" height="170" fill="white"></rect>

  <!-- waves (top removed) -->
  <g fill="none" stroke="#32B1CC" stroke-width="8" stroke-linecap="round">
    <path d="M10 65 C40 45,70 85,100 65 S160 85,190 65 S250 85,280 65 S340 85,360 65"></path>
    <path d="M10 95 C40 75,70 115,100 95 S160 115,190 95 S250 115,280 95 S340 115,360 95"></path>
  </g>

  <!-- elongated pills -->
  <g transform="translate(25,135)">
    <ellipse cx="0" cy="0" rx="11" ry="18" fill="#1C5C85"></ellipse>
    <ellipse cx="18" cy="0" rx="11" ry="18" fill="#1C5C85"></ellipse>
    <ellipse cx="36" cy="0" rx="11" ry="18" fill="#1C5C85"></ellipse>
    <ellipse cx="54" cy="0" rx="11" ry="18" fill="#216492"></ellipse>
    <ellipse cx="72" cy="0" rx="11" ry="18" fill="#87CEE9"></ellipse>
    <ellipse cx="90" cy="0" rx="11" ry="18" fill="#216492"></ellipse>
    <ellipse cx="108" cy="0" rx="11" ry="18" fill="#1C5C85"></ellipse>
    <ellipse cx="126" cy="0" rx="11" ry="18" fill="#216492"></ellipse>
    <ellipse cx="144" cy="0" rx="11" ry="18" fill="#87CEE9"></ellipse>
    <ellipse cx="162" cy="0" rx="11" ry="18" fill="#1C5C85"></ellipse>
    <ellipse cx="180" cy="0" rx="11" ry="18" fill="#1C5C85"></ellipse>
    <ellipse cx="198" cy="0" rx="11" ry="18" fill="#87CEE9"></ellipse>
    <ellipse cx="216" cy="0" rx="11" ry="18" fill="#216492"></ellipse>
    <ellipse cx="234" cy="0" rx="11" ry="18" fill="#1C5C85"></ellipse>
    <ellipse cx="252" cy="0" rx="11" ry="18" fill="#216492"></ellipse>
    <ellipse cx="270" cy="0" rx="11" ry="18" fill="#87CEE9"></ellipse>
    <ellipse cx="288" cy="0" rx="11" ry="18" fill="#1C5C85"></ellipse>
    <ellipse cx="306" cy="0" rx="11" ry="18" fill="#216492"></ellipse>

    <!-- extra pill added -->
    <ellipse cx="324" cy="0" rx="11" ry="18" fill="#1C5C85"></ellipse>
  </g>
</svg>
